<?xml version="1.0" standalone="no"?>
<!DOCTYPE svg PUBLIC "-//W3C//DTD SVG 20010904//EN"
 "http://www.w3.org/TR/2001/REC-SVG-20010904/DTD/svg10.dtd">
<svg version="1.0" xmlns="http://www.w3.org/2000/svg"
 width="2000.000000pt" height="2000.000000pt" viewBox="0 0 2000.000000 2000.000000"
 preserveAspectRatio="xMidYMid meet">

<g transform="translate(0.000000,2000.000000) scale(0.100000,-0.100000)"
fill="#000000" stroke="none">
<path d="M10583 10589 c-1 -15 2 -31 8 -35 12 -7 39 27 32 41 -2 5 3 1 12 -10
9 -11 22 -19 28 -17 6 2 3 -5 -7 -16 -17 -20 -17 -21 3 -32 21 -11 20 -30 0
-30 -6 0 -8 4 -5 9 3 5 -1 14 -9 21 -8 7 -15 10 -15 6 0 -4 -12 1 -26 10 -25
17 -25 17 -20 -7 3 -13 17 -139 31 -279 97 -982 97 -1577 -1 -2210 -149 -969
-405 -1693 -816 -2309 -49 -74 -86 -137 -81 -140 62 -47 223 -144 315 -192
296 -151 630 -248 1018 -296 212 -26 1035 -26 1290 0 464 48 900 150 1304 304
49 18 91 31 94 28 3 -3 -8 -20 -24 -38 -40 -44 -13 -21 170 144 651 585 1268
1337 1723 2099 192 322 438 791 429 817 -3 8 -2 12 2 9 4 -2 12 7 19 20 9 20
8 24 -4 24 -8 0 -11 -4 -8 -10 3 -5 0 -10 -8 -10 -10 0 -13 7 -10 19 3 12 11
17 19 14 8 -3 21 0 28 6 15 13 15 47 0 44 -5 -1 -15 3 -21 9 -10 8 -13 4 -13
-16 0 -14 -4 -26 -9 -26 -4 0 -7 11 -6 25 2 14 -2 28 -7 32 -7 4 -8 1 -3 -7 5
-8 3 -11 -6 -8 -8 3 -13 12 -11 19 2 8 1 11 -3 8 -3 -4 -23 1 -43 11 -36 18
-68 16 -41 -1 11 -7 11 -9 1 -9 -10 0 -10 -5 -2 -20 6 -11 7 -20 1 -20 -11 0
-24 47 -16 61 7 10 -35 30 -47 22 -5 -2 -8 0 -8 5 0 16 -38 21 -44 6 -3 -8
-12 -14 -21 -14 -8 0 -15 -4 -15 -10 0 -5 11 -10 24 -10 13 0 26 -6 29 -14 6
-15 -11 -36 -28 -36 -5 0 -2 5 8 11 19 11 14 29 -9 29 -9 0 -13 -5 -9 -12 4
-7 -1 -4 -9 6 -21 26 -20 37 4 43 12 3 19 10 17 16 -6 18 -101 49 -134 43 -31
-4 -38 1 -34 26 0 4 -6 5 -14 2 -8 -4 -15 -1 -15 6 0 7 -7 10 -16 6 -8 -3 -13
-2 -10 3 6 10 -43 25 -52 16 -3 -3 0 -5 6 -5 7 0 12 -8 12 -17 0 -12 -7 -8
-21 15 -25 38 -33 41 -25 10 l6 -23 -11 22 c-7 12 -33 30 -58 40 -55 21 -61
22 -86 10 -17 -9 -18 -8 -8 5 11 13 3 19 -57 42 -38 15 -75 24 -81 20 -8 -4
-9 -3 -5 4 11 19 -25 14 -48 -5 -21 -18 -21 -18 -3 4 12 14 15 23 8 28 -6 3
-11 3 -11 -1 0 -3 -6 -2 -12 4 -7 5 -25 10 -40 10 -15 0 -39 9 -54 21 -27 22
-48 21 -26 -1 18 -18 14 -34 -9 -35 -19 -2 -20 -1 -4 10 15 12 14 15 -11 40
-21 21 -29 24 -36 15 -4 -7 -8 -8 -8 -3 0 14 -79 47 -92 39 -6 -4 -8 -3 -5 3
4 6 -6 16 -23 21 -24 9 -32 8 -41 -6 -10 -16 -10 -16 -5 0 4 14 -4 22 -31 33
-20 9 -41 14 -47 12 -6 -2 -17 3 -24 10 -11 10 -18 11 -28 2 -14 -12 -38 -3
-29 11 10 16 -15 22 -32 8 -9 -7 -14 -8 -10 -2 9 16 -7 27 -88 57 -38 14 -79
29 -89 33 -13 5 -17 4 -12 -4 5 -8 2 -10 -8 -6 -9 3 -13 10 -10 15 3 5 0 9 -7
9 -7 0 -9 -8 -6 -21 4 -15 2 -19 -9 -15 -13 5 -19 -6 -14 -29 1 -5 -4 -5 -11
2 -10 10 -9 15 1 28 7 8 9 15 5 15 -4 0 -2 6 4 14 9 11 7 15 -8 19 -11 3 -22
0 -25 -7 -2 -6 -5 -4 -5 5 -1 20 -42 33 -52 17 -12 -18 1 -30 17 -17 10 8 14
8 14 1 0 -6 -9 -16 -20 -22 -16 -8 -20 -8 -18 2 2 7 -3 12 -10 10 -9 -2 -11 2
-6 10 16 25 12 37 -17 47 -23 8 -31 7 -40 -7 -10 -16 -10 -15 -5 1 4 14 -3 22
-29 33 -43 18 -51 18 -36 0 8 -10 9 -16 1 -21 -6 -4 -9 -1 -8 7 2 7 -3 12 -11
10 -8 -2 -11 3 -8 12 7 17 -55 42 -74 30 -7 -4 -9 -3 -6 3 4 6 -2 13 -13 16
-13 3 -18 1 -14 -6 3 -7 -2 -3 -10 7 -9 11 -16 16 -16 12 0 -4 -10 0 -21 8
-12 8 -28 12 -35 9 -8 -3 -14 -1 -14 5 0 5 -12 12 -26 15 -18 3 -24 1 -20 -9
3 -8 1 -14 -4 -14 -6 0 -10 9 -10 21 0 11 -4 17 -10 14 -5 -3 -10 -2 -10 3 0
5 -9 12 -21 15 -15 4 -19 2 -15 -8 3 -8 0 -17 -7 -21 -7 -4 -9 -4 -5 1 10 11
-11 47 -23 40 -5 -4 -9 0 -9 7 -1 10 -4 9 -13 -2 -12 -16 -52 -16 -42 0 3 5
13 6 23 3 41 -14 -7 16 -51 32 -39 15 -50 16 -57 6 -9 -15 -50 -6 -50 11 0 6
6 6 15 -2 16 -14 31 -8 21 8 -8 13 -46 22 -46 11 0 -5 -8 -9 -17 -9 -14 0 -15
2 -4 9 9 6 10 11 2 15 -6 4 -16 4 -23 0 -6 -4 -8 -3 -5 3 7 12 -62 35 -76 26
-6 -3 -7 -1 -3 5 10 16 -7 15 -23 0 -10 -11 -11 -10 -6 5 7 16 -8 23 -37 18
-5 0 -8 3 -8 8 0 5 -11 12 -24 15 -13 3 -32 9 -42 13 -14 5 -16 3 -11 -11 5
-14 3 -17 -8 -12 -10 3 -15 -1 -15 -14 0 -10 -4 -21 -9 -24 -12 -7 -2 34 12
52 8 10 7 16 -4 23 -20 13 -46 11 -52 -3 -4 -9 -6 -8 -6 2 -1 8 -10 21 -22 28
-12 8 -18 9 -14 3 10 -18 -7 -12 -22 7 -8 9 -12 11 -8 5 9 -19 -6 -16 -20 3
-6 9 -26 17 -43 17 -18 1 -32 5 -32 9 0 16 -49 7 -59 -9 -6 -10 -11 -13 -11
-6 0 6 10 19 22 27 18 13 19 16 5 16 -29 0 -31 1 -52 13 -11 7 -27 13 -35 12
-8 0 -18 3 -21 7 -10 14 -111 50 -103 36 4 -6 -8 -1 -26 12 -30 21 -33 22 -26
5 6 -17 5 -17 -17 3 -13 12 -27 22 -31 22 -4 0 -22 6 -39 14 -40 18 -108 46
-113 46 -2 0 -4 -8 -4 -17 0 -16 2 -16 11 -3 9 13 10 13 6 -1 -3 -9 0 -23 6
-30 8 -8 5 -8 -7 1 -11 8 -29 14 -40 12 -20 -2 -20 -2 -3 11 20 17 22 27 4 27
-7 0 -18 -9 -25 -20 -7 -11 -20 -20 -30 -20 -16 1 -16 1 1 11 9 6 15 15 11 20
-3 5 0 8 7 7 26 -6 18 20 -9 30 -23 8 -33 7 -45 -5 -10 -10 -17 -12 -22 -4 -3
6 -3 10 2 9 4 -2 9 0 11 5 1 4 -1 7 -4 6 -4 0 -11 5 -15 13 -7 11 -11 10 -18
-2 -7 -9 -6 -20 2 -30 10 -13 10 -13 -4 -3 -9 7 -19 10 -22 6 -4 -3 -7 -2 -8
3 0 5 -2 17 -4 27 -2 9 1 15 6 11 5 -3 7 -10 4 -15 -4 -5 -1 -9 4 -9 6 0 11 6
11 14 0 17 -35 30 -51 20 -7 -4 -18 1 -25 10 -17 24 -49 16 -50 -12 -1 -13 -9
-31 -18 -40 -16 -16 -17 -16 -10 1 4 12 1 17 -10 17 -10 0 -16 8 -15 23 1 16
2 18 6 5 4 -17 13 -21 30 -15 4 1 8 15 10 30 2 20 -1 27 -9 24 -7 -2 -12 -10
-10 -16 1 -7 -2 -10 -7 -6 -6 3 -7 13 -4 23 5 14 3 14 -17 -3 -14 -12 -20 -14
-15 -5 8 13 7 13 -8 1 -15 -11 -17 -11 -17 2 0 8 5 17 12 19 10 4 -80 45 -113
52 -8 2 -31 10 -51 19 -20 9 -45 14 -54 10 -13 -5 -15 -3 -9 7 5 9 4 11 -3 6
-7 -4 -12 -3 -12 2 0 5 -12 10 -26 10 -15 0 -30 5 -34 12 -5 9 -9 9 -14 1 -4
-6 -13 -11 -19 -11 -7 0 -6 4 3 10 18 11 11 19 -21 22 -13 2 -26 6 -29 9 -7 7
-88 39 -101 39 -6 0 -7 -6 -4 -12 4 -7 -1 -4 -9 6 -9 11 -16 14 -16 8 0 -7 -5
-12 -11 -12 -6 0 -8 7 -5 16 3 8 2 12 -3 9 -5 -3 -12 -1 -16 5 -3 5 -11 10
-16 10 -6 0 -8 -4 -5 -9 3 -5 -1 -14 -9 -21 -7 -6 -11 -19 -8 -28 6 -14 5 -15
-9 -2 -13 13 -13 16 5 30 18 15 18 17 3 33 -9 9 -24 13 -33 10 -11 -4 -14 -3
-9 5 4 8 0 12 -11 12 -11 0 -25 6 -32 13 -11 10 -13 10 -7 0 10 -18 -2 -16
-21 3 -9 8 -24 13 -34 11 -10 -3 -17 0 -16 5 2 12 -57 36 -90 37 -13 1 -23 5
-23 10 0 5 -9 11 -20 14 -11 3 -20 2 -20 -3 0 -13 -29 -20 -36 -8 -4 7 -3 8 4
4 7 -4 12 -1 12 9 0 9 -4 13 -10 10 -5 -3 -10 -2 -10 3 0 5 -11 12 -25 14 -14
3 -25 1 -25 -4 0 -5 -4 -7 -9 -3 -5 3 -12 1 -16 -5 -8 -13 -35 -13 -35 1 0 5
4 8 9 5 5 -3 14 1 20 8 7 9 8 17 2 20 -12 8 -41 -3 -41 -15 0 -5 -5 -9 -11 -9
-5 0 -7 5 -4 10 3 6 2 10 -3 10 -5 0 -12 10 -16 23 -4 16 -8 19 -15 9 -7 -11
-9 -11 -14 2 -4 9 -10 15 -14 14 -4 -1 -21 4 -38 11 -93 40 -89 39 -115 24
-22 -14 -23 -14 -7 0 12 10 14 17 8 22 -6 3 -11 4 -11 1 0 -3 -12 2 -27 9 -24
13 -30 12 -51 -1 -13 -9 -26 -13 -30 -10 -3 3 0 6 7 6 7 0 9 5 5 12 -5 7 -3 8
6 3 9 -5 11 -4 6 4 -8 12 -45 30 -79 36 -9 2 -20 6 -25 8 -4 3 -8 -8 -9 -24z
m147 -91 c0 -6 -6 -5 -15 2 -8 7 -15 14 -15 16 0 2 7 1 15 -2 8 -4 15 -11 15
-16z m95 2 c8 -13 -5 -13 -25 0 -13 8 -13 10 2 10 9 0 20 -4 23 -10z m-133
-32 c-7 -7 -12 -8 -12 -2 0 14 12 26 19 19 2 -3 -1 -11 -7 -17z m66 10 c-2 -7
2 -12 8 -11 6 1 11 -4 11 -12 0 -10 -5 -11 -19 -4 -19 10 -23 21 -11 32 10 10
13 8 11 -5z m65 3 c11 -1 8 -31 -3 -31 -5 0 -9 5 -7 12 1 7 -3 12 -10 13 -6 0
-14 3 -18 7 -4 3 1 5 12 3 10 -2 21 -4 26 -4z m111 -7 c9 -3 16 -11 16 -17 0
-7 -4 -7 -12 1 -18 18 -27 14 -22 -10 4 -21 4 -21 -5 -3 -13 30 -5 40 23 29z
m-96 -59 c-16 -29 -21 -33 -14 -8 6 17 2 22 -16 26 -15 3 -12 4 9 4 28 -1 30
-3 21 -22z m112 -11 c0 -2 -7 -4 -15 -4 -8 0 -15 4 -15 10 0 5 7 7 15 4 8 -4
15 -8 15 -10z m26 -12 c-17 -16 -18 -16 -5 5 7 12 15 20 18 17 3 -2 -3 -12
-13 -22z m-312 9 c3 -5 -2 -15 -12 -22 -15 -12 -16 -12 -5 2 7 9 10 19 6 22
-3 4 -4 7 0 7 3 0 8 -4 11 -9z m216 -11 c0 -5 -5 -10 -11 -10 -5 0 -7 5 -4 10
3 6 8 10 11 10 2 0 4 -4 4 -10z m-253 -7 c-4 -3 -1 -13 6 -22 11 -14 10 -14
-5 -2 -16 12 -16 31 -1 31 4 0 3 -3 0 -7z m448 -13 c10 -11 16 -20 13 -20 -3
0 -13 9 -23 20 -10 11 -16 20 -13 20 3 0 13 -9 23 -20z m-112 1 c4 -1 7 -5 7
-10 0 -10 -38 -3 -45 9 -3 5 3 7 12 5 10 -2 21 -4 26 -4z m77 -5 c0 -2 -7 -7
-16 -10 -8 -3 -12 -2 -9 4 6 10 25 14 25 6z m112 -20 c7 4 8 2 4 -5 -9 -13
-26 -5 -25 12 0 9 2 8 6 -1 2 -6 10 -9 15 -6z m128 -6 c-6 -4 -11 -11 -10 -16
1 -5 -3 -10 -9 -12 -14 -5 -14 15 -1 23 6 4 8 11 5 16 -3 5 1 6 10 2 12 -4 13
-8 5 -13z m-221 1 c8 -5 9 -11 3 -15 -5 -3 -15 1 -22 9 -14 16 -3 20 19 6z
m-376 -16 c-3 -9 -8 -14 -10 -11 -3 3 -2 9 2 15 9 16 15 13 8 -4z m217 9 c0
-8 -19 -13 -24 -6 -3 5 1 9 9 9 8 0 15 -2 15 -3z m-61 -17 c8 -10 7 -14 -4
-14 -8 0 -12 4 -9 8 2 4 -2 10 -8 12 -8 4 -9 6 -2 6 6 1 17 -5 23 -12z m282
-14 c-12 -20 -14 -14 -5 12 4 9 9 14 11 11 3 -2 0 -13 -6 -23z m-191 -15 c0
-6 -6 -5 -15 2 -8 7 -15 14 -15 16 0 2 7 1 15 -2 8 -4 15 -11 15 -16z m399 9
c6 -8 7 -18 3 -22 -4 -5 1 -5 11 -2 11 4 17 1 17 -8 0 -8 5 -15 11 -15 5 0 7
-4 4 -10 -3 -5 -1 -10 5 -10 6 0 8 -5 4 -11 -4 -8 -12 -2 -21 15 -16 30 -25
35 -17 9 3 -10 0 -8 -8 5 -10 15 -17 19 -24 12 -7 -7 -14 -2 -23 17 -12 27
-12 27 7 10 12 -11 22 -14 26 -8 4 5 -2 14 -11 20 -10 6 -13 11 -7 11 6 0 17
-6 23 -13z m-297 -34 c-6 -2 -9 -10 -6 -15 4 -7 2 -8 -5 -4 -13 9 -5 26 12 25
9 0 8 -2 -1 -6z m458 -3 c0 -5 -2 -10 -4 -10 -3 0 -8 5 -11 10 -3 6 -1 10 4
10 6 0 11 -4 11 -10z m-66 -29 c-2 -3 -12 3 -22 13 -16 17 -16 18 5 5 12 -7
20 -15 17 -18z m-94 0 c0 -6 -4 -12 -8 -15 -5 -3 -9 1 -9 9 0 8 4 15 9 15 4 0
8 -4 8 -9z m125 -1 c3 -5 1 -10 -4 -10 -6 0 -11 5 -11 10 0 6 2 10 4 10 3 0 8
-4 11 -10z m-40 -38 c-3 -3 -11 0 -18 7 -9 10 -8 11 6 5 10 -3 15 -9 12 -12z
m45 -2 c-8 -5 -17 -7 -19 -4 -3 3 1 9 9 14 8 5 17 7 19 4 3 -3 -1 -9 -9 -14z
m123 -3 c4 3 7 4 7 1 0 -3 -8 -12 -17 -19 -10 -7 -15 -9 -11 -5 4 5 2 16 -5
25 -10 14 -10 14 4 4 9 -7 19 -10 22 -6z m107 -2 c7 -9 8 -15 2 -15 -5 0 -12
7 -16 15 -3 8 -4 15 -2 15 2 0 9 -7 16 -15z m-420 1 c0 -2 -7 -7 -16 -10 -8
-3 -12 -2 -9 4 6 10 25 14 25 6z m235 -15 c-3 -6 -11 -11 -16 -11 -5 0 -4 6 3
14 14 16 24 13 13 -3z m220 -38 c-2 -21 -8 -39 -15 -41 -8 -3 -10 0 -5 8 5 8
1 18 -9 26 -16 11 -16 13 3 19 12 3 21 11 21 16 0 5 2 9 3 9 2 0 3 -17 2 -37z
m-133 10 c-6 -2 -9 -10 -5 -16 4 -7 -1 -6 -10 2 -22 18 -21 21 6 20 12 0 16
-3 9 -6z m68 3 c0 -2 -7 -7 -16 -10 -8 -3 -12 -2 -9 4 6 10 25 14 25 6z m-469
-23 c13 -16 12 -17 -3 -4 -10 7 -18 15 -18 17 0 8 8 3 21 -13z m560 4 c-1 -12
-15 -9 -19 4 -3 6 1 10 8 8 6 -3 11 -8 11 -12z m-94 -13 c-3 -3 -12 -4 -19 -1
-8 3 -5 6 6 6 11 1 17 -2 13 -5z m-217 -14 c0 -5 -2 -10 -4 -10 -3 0 -8 5 -11
10 -3 6 -1 10 4 10 6 0 11 -4 11 -10z m353 -10 c-7 -26 -22 -35 -36 -21 -8 8
-6 11 6 11 9 0 17 7 17 15 0 8 4 15 9 15 5 0 7 -9 4 -20z m37 -1 c0 -5 -4 -9
-10 -9 -5 0 -10 7 -10 16 0 8 5 12 10 9 6 -3 10 -10 10 -16z m43 -6 c-3 -7 -6
-13 -8 -13 -2 0 -5 6 -8 13 -3 8 1 14 8 14 7 0 11 -6 8 -14z m77 3 c0 -2 -7
-6 -15 -10 -8 -3 -15 -1 -15 4 0 6 7 10 15 10 8 0 15 -2 15 -4z m-452 -41 c-3
-3 -9 2 -12 12 -6 14 -5 15 5 6 7 -7 10 -15 7 -18z m546 17 c3 -5 -1 -9 -9 -9
-8 0 -12 4 -9 9 3 4 7 8 9 8 2 0 6 -4 9 -8z m-197 -10 c11 8 12 7 7 -6 -8 -21
-18 -20 -35 2 -11 14 -11 15 1 5 10 -9 17 -10 27 -1z m133 2 c0 -8 -19 -13
-24 -6 -3 5 1 9 9 9 8 0 15 -2 15 -3z m-29 -21 c13 -17 13 -17 -6 -3 -11 8
-22 16 -24 17 -2 2 0 3 6 3 6 0 17 -8 24 -17z m-10 -20 c13 -17 13 -17 -6 -3
-11 8 -22 16 -24 17 -2 2 0 3 6 3 6 0 17 -8 24 -17z m89 5 c0 -4 -4 -8 -9 -8
-6 0 -12 4 -15 8 -3 5 1 9 9 9 8 0 15 -4 15 -9z m-224 -24 c1 -9 0 -13 -4 -10
-3 4 -7 14 -8 22 -1 9 0 13 4 10 3 -4 7 -14 8 -22z m258 18 c3 -5 -1 -9 -9 -9
-8 0 -12 4 -9 9 3 4 7 8 9 8 2 0 6 -4 9 -8z m-64 -8 c0 -8 -19 -13 -24 -6 -3
5 1 9 9 9 8 0 15 -2 15 -3z m-95 -32 c-3 -3 -11 0 -18 7 -9 10 -8 11 6 5 10
-3 15 -9 12 -12z m172 12 c-3 -3 -12 -4 -19 -1 -8 3 -5 6 6 6 11 1 17 -2 13
-5z m167 -8 c-6 -15 -28 -16 -41 -1 -4 4 -3 6 2 2 6 -3 17 -2 25 4 20 12 20
11 14 -5z m-438 -24 c-10 -2 -22 0 -28 6 -6 6 0 7 19 4 21 -5 23 -7 9 -10z
m314 -18 c0 -8 -4 -12 -10 -9 -5 3 -10 10 -10 16 0 5 5 9 10 9 6 0 10 -7 10
-16z m97 -6 c-3 -8 -6 -5 -6 6 -1 11 2 17 5 13 3 -3 4 -12 1 -19z m-22 -8 c3
-5 -1 -10 -10 -10 -9 0 -13 5 -10 10 3 6 8 10 10 10 2 0 7 -4 10 -10z m65 -11
c0 -5 -4 -9 -8 -9 -5 0 -9 7 -9 15 0 8 4 12 9 9 4 -3 8 -9 8 -15z m-310 -14
c-7 -9 -15 -13 -19 -10 -3 3 1 10 9 15 21 14 24 12 10 -5z m350 -15 c8 -5 7
-9 -5 -13 -9 -4 -13 -3 -10 2 3 5 1 12 -5 16 -5 3 -10 12 -10 18 0 8 3 7 9 -2
5 -7 14 -17 21 -21z m70 26 c0 -11 -19 -15 -25 -6 -3 5 1 10 9 10 9 0 16 -2
16 -4z m193 -51 c-3 -8 -10 -15 -15 -15 -7 0 -6 5 1 13 6 8 7 18 3 22 -4 5 -2
5 5 1 7 -4 10 -13 6 -21z m-423 5 c0 -5 -2 -10 -4 -10 -3 0 -8 5 -11 10 -3 6
-1 10 4 10 6 0 11 -4 11 -10z m215 0 c-3 -5 -16 -10 -28 -9 -20 1 -20 2 3 9
14 4 26 8 28 9 2 1 0 -3 -3 -9z m20 -21 c-3 -12 -7 -24 -10 -27 -3 -3 -3 5 -1
19 6 30 5 29 10 29 3 0 3 -10 1 -21z m144 -1 c-1 -7 -1 -23 0 -36 1 -20 3 -21
21 -10 23 15 27 30 5 22 -8 -4 -15 -2 -15 4 0 13 27 9 42 -6 9 -9 9 -12 -1
-12 -7 0 -9 -4 -6 -10 3 -6 -1 -7 -9 -4 -9 3 -16 1 -16 -4 0 -6 -8 -10 -17 -9
-16 1 -21 25 -14 70 2 12 12 8 10 -5z m116 -18 c1 -10 -2 -17 -6 -14 -4 2 -7
13 -6 24 2 23 10 17 12 -10z m-150 -1 c6 1 6 -1 2 -5 -12 -12 -38 -14 -30 -2
4 7 -1 9 -14 6 -12 -3 -27 -1 -34 4 -11 8 -10 9 4 4 9 -3 17 -1 17 5 0 6 9 5
23 -3 12 -7 27 -11 32 -9z m195 -15 c0 -8 -19 -13 -24 -6 -3 5 1 9 9 9 8 0 15
-2 15 -3z m70 -30 c0 -8 -4 -14 -9 -14 -6 0 -9 9 -8 19 1 22 17 18 17 -5z m55
7 c3 -5 2 -12 -3 -15 -5 -3 -9 1 -9 9 0 17 3 19 12 6z m-502 -16 c-3 -9 -8
-14 -10 -11 -3 3 -2 9 2 15 9 16 15 13 8 -4z m357 0 c-10 -12 -10 -15 1 -15 9
-1 8 -4 -4 -11 -10 -6 -21 -8 -24 -5 -4 3 -1 6 5 6 6 0 9 9 7 20 -3 13 2 20
12 20 13 0 13 -3 3 -15z m-459 -12 c13 -16 12 -17 -3 -4 -10 7 -18 15 -18 17
0 8 8 3 21 -13z m660 -6 c-13 -13 -26 -3 -16 12 3 6 11 8 17 5 6 -4 6 -10 -1
-17z m-726 3 c3 -5 1 -10 -4 -10 -6 0 -11 5 -11 10 0 6 2 10 4 10 3 0 8 -4 11
-10z m661 -17 c-4 -9 -2 -12 7 -7 8 5 7 2 -2 -9 -18 -22 -18 -22 -23 12 -3 21
-1 28 9 24 8 -3 12 -12 9 -20z m-46 2 c-7 -8 -17 -15 -23 -15 -6 0 -2 7 9 15
25 19 30 19 14 0z m-58 -2 c-6 -2 -9 -10 -6 -15 4 -7 2 -8 -5 -4 -13 9 -5 26
12 25 9 0 8 -2 -1 -6z m176 -12 c-16 -14 -27 -16 -35 -9 -18 15 -10 23 27 25
l31 2 -23 -18z m-544 -27 c3 -8 2 -12 -4 -9 -6 3 -10 10 -10 16 0 14 7 11 14
-7z m674 2 c-2 -1 -14 -10 -27 -21 -14 -11 -21 -14 -17 -7 4 6 2 12 -3 12 -26
0 -8 15 20 16 16 1 29 1 27 0z m-533 -26 c3 -5 -4 -6 -15 -3 -11 3 -22 9 -25
13 -3 5 4 6 15 3 11 -3 22 -9 25 -13z m55 14 c0 -8 -19 -13 -24 -6 -3 5 1 9 9
9 8 0 15 -2 15 -3z m148 -19 c1 -13 -2 -26 -6 -29 -6 -3 -8 36 -3 52 3 8 7 -2
9 -23z m365 8 c-3 -7 -8 -13 -12 -13 -4 0 -8 6 -8 13 0 8 6 14 13 14 7 0 10
-6 7 -14z m-223 -3 c0 -5 -2 -10 -4 -10 -3 0 -8 5 -11 10 -3 6 -1 10 4 10 6 0
11 -4 11 -10z m60 -22 c0 -16 -3 -19 -11 -11 -6 6 -8 16 -5 22 11 17 16 13 16
-11z m-112 -2 c-7 -8 -15 -12 -17 -11 -5 6 10 25 20 25 5 0 4 -6 -3 -14z m175
-11 c-7 -21 -12 -19 -10 4 0 11 5 18 9 15 4 -3 5 -11 1 -19z m121 15 c-6 -6
-20 -12 -32 -15 -12 -2 -27 -7 -32 -10 -6 -3 -7 1 -4 10 4 9 8 14 11 11 2 -2
16 0 31 4 37 11 37 11 26 0z m31 -10 c3 -5 -1 -10 -10 -10 -9 0 -13 5 -10 10
3 6 8 10 10 10 2 0 7 -4 10 -10z m-123 -22 c-7 -7 -12 -8 -12 -2 0 14 12 26
19 19 2 -3 -1 -11 -7 -17z m84 -15 c-6 -15 -9 -15 -16 -3 -6 9 -5 17 3 22 16
10 21 2 13 -19z m75 14 c-6 -8 -9 -16 -6 -19 3 -2 -8 -4 -24 -4 -20 0 -27 4
-24 13 3 7 9 13 15 13 5 0 6 -4 3 -10 -9 -15 4 -12 21 5 19 19 30 20 15 2z
m129 -12 c0 -8 -4 -15 -9 -15 -4 0 -6 -11 -4 -24 4 -18 -1 -27 -17 -36 -12 -6
-24 -9 -28 -6 -3 3 1 6 8 6 9 0 7 5 -6 15 -18 14 -17 14 9 5 15 -5 27 -6 27
-1 0 5 -6 11 -12 14 -10 3 -8 9 5 24 9 11 14 23 10 26 -3 4 -1 7 5 7 7 0 12
-7 12 -15z m27 -10 c0 -8 -4 -12 -9 -9 -5 3 -6 10 -3 15 9 13 12 11 12 -6z
m-167 -19 c0 -2 -7 -6 -15 -10 -8 -3 -15 -1 -15 4 0 6 7 10 15 10 8 0 15 -2
15 -4z m58 -31 c-3 -3 -9 2 -12 12 -6 14 -5 15 5 6 7 -7 10 -15 7 -18z m-138
1 c-7 -7 -13 -7 -20 0 -6 6 -3 10 10 10 13 0 16 -4 10 -10z m87 -8 c-3 -8 -6
-5 -6 6 -1 11 2 17 5 13 3 -3 4 -12 1 -19z m230 16 c-3 -3 -12 -4 -19 -1 -8 3
-5 6 6 6 11 1 17 -2 13 -5z m46 -34 c3 -11 1 -20 -4 -20 -5 0 -9 5 -9 11 0 5
-4 8 -9 5 -5 -3 -8 5 -7 18 1 28 20 18 29 -14z m-632 13 c13 -16 12 -17 -3 -4
-10 7 -18 15 -18 17 0 8 8 3 21 -13z m164 -11 c-3 -3 -11 0 -18 7 -9 10 -8 11
6 5 10 -3 15 -9 12 -12z m365 8 c0 -5 -5 -10 -11 -10 -5 0 -7 5 -4 10 3 6 8
10 11 10 2 0 4 -4 4 -10z m20 -14 c-5 -13 -6 -27 -3 -30 4 -3 4 -6 1 -6 -3 0
-12 8 -19 17 -8 9 -9 14 -3 10 7 -4 14 2 17 13 3 11 8 20 11 20 3 0 1 -11 -4
-24z m-283 -8 c-3 -8 -6 -5 -6 6 -1 11 2 17 5 13 3 -3 4 -12 1 -19z m413 -13
c0 -2 -6 -5 -13 -8 -8 -3 -14 1 -14 8 0 7 6 11 14 8 7 -3 13 -6 13 -8z m-306
-16 c-3 -5 -10 -7 -15 -3 -5 3 -7 10 -3 15 3 5 10 7 15 3 5 -3 7 -10 3 -15z
m320 -11 c-3 -4 -9 -8 -15 -8 -5 0 -9 4 -9 8 0 5 7 9 15 9 8 0 12 -4 9 -9z
m-64 -8 c0 -5 -5 -10 -11 -10 -5 0 -7 5 -4 10 3 6 8 10 11 10 2 0 4 -4 4 -10z
m100 -35 c0 -2 -9 -3 -19 -2 -11 0 -18 5 -15 9 4 6 34 0 34 -7z m157 -3 c-1
-12 -10 -18 -30 -19 -19 0 -25 2 -16 7 7 5 16 7 20 4 4 -2 9 3 13 11 7 20 15
19 13 -3z m-594 -12 c10 -12 9 -12 -4 -2 -10 8 -19 8 -26 1 -6 -6 -10 -5 -10
5 0 17 23 15 40 -4z m72 -8 c-3 -3 -11 0 -18 7 -9 10 -8 11 6 5 10 -3 15 -9
12 -12z m535 -27 c-7 -9 -15 -13 -17 -11 -6 6 20 36 26 30 2 -2 -2 -10 -9 -19z
m82 7 c3 -11 0 -19 -8 -19 -7 0 -12 9 -11 19 1 10 4 18 8 18 4 0 9 -8 11 -18z
m-374 -17 c-3 -3 -9 2 -12 12 -6 14 -5 15 5 6 7 -7 10 -15 7 -18z m249 11 c0
-8 -6 -12 -14 -9 -7 3 -10 9 -7 14 8 14 21 11 21 -5z m159 -12 c-4 -9 -9 -15
-11 -12 -3 3 -3 13 1 22 4 9 9 15 11 12 3 -3 3 -13 -1 -22z m78 4 c-4 -6 -10
-5 -15 3 -7 11 -9 11 -9 -3 0 -11 -6 -15 -20 -11 -11 3 -20 9 -20 14 0 5 6 6
14 3 8 -3 17 -1 20 5 4 6 13 8 21 5 8 -4 12 -11 9 -16z m-419 -26 c-3 -3 -11
0 -18 7 -9 10 -8 11 6 5 10 -3 15 -9 12 -12z m269 6 c-5 -8 -2 -9 9 -5 10 3
17 2 17 -3 0 -14 -21 -12 -50 5 l-25 14 28 1 c19 0 26 -4 21 -12z m212 0 c4
-7 3 -8 -4 -4 -7 4 -12 2 -12 -5 0 -7 -3 -10 -6 -6 -6 5 3 27 11 27 2 0 7 -5
11 -12z m-116 -8 c0 -5 -2 -10 -4 -10 -3 0 -8 5 -11 10 -3 6 -1 10 4 10 6 0
11 -4 11 -10z m70 0 c-13 -9 -13 -10 0 -10 10 -1 8 -5 -6 -13 -12 -7 -19 -18
-17 -24 3 -7 0 -13 -7 -13 -6 0 -8 5 -5 10 3 6 0 10 -7 10 -7 1 -2 7 12 15 14
8 21 14 17 15 -13 0 3 20 16 20 7 0 6 -4 -3 -10z m-346 -16 c3 -8 2 -12 -4 -9
-6 3 -10 10 -10 16 0 14 7 11 14 -7z m440 8 c3 -5 -1 -9 -9 -9 -8 0 -12 4 -9
9 3 4 7 8 9 8 2 0 6 -4 9 -8z m-354 -33 c0 -5 -4 -9 -8 -9 -5 0 -9 7 -9 15 0
8 4 12 9 9 4 -3 8 -9 8 -15z m410 11 c0 -5 -2 -10 -4 -10 -3 0 -8 5 -11 10 -3
6 -1 10 4 10 6 0 11 -4 11 -10z m-100 -45 c5 3 8 11 6 18 -1 7 -1 9 1 5 3 -5
12 -8 21 -9 14 0 14 -2 2 -6 -24 -10 -37 -27 -33 -43 2 -8 -2 -6 -9 5 -7 11
-13 34 -15 50 l-2 30 10 -28 c6 -15 15 -25 19 -22z m80 21 c0 -2 -7 -7 -16
-10 -8 -3 -12 -2 -9 4 6 10 25 14 25 6z m55 -16 c-3 -5 -12 -10 -18 -10 -7 0
-6 4 3 10 19 12 23 12 15 0z m66 -8 c-7 -2 -18 1 -23 6 -8 8 -4 9 13 5 13 -4
18 -8 10 -11z m-128 -7 c-3 -9 -8 -14 -10 -11 -3 3 -2 9 2 15 9 16 15 13 8 -4z
m201 -15 c-5 -5 -16 -5 -24 1 -13 9 -12 10 3 5 11 -4 17 0 18 12 0 12 2 13 6
4 3 -8 1 -18 -3 -22z m-58 -17 c-12 -26 -29 -32 -19 -6 5 11 3 14 -6 9 -7 -5
-11 -17 -8 -27 3 -11 1 -17 -4 -13 -24 14 3 61 36 61 9 0 9 -6 1 -24z m-66 13
c0 -3 -4 -8 -10 -11 -5 -3 -10 -1 -10 4 0 6 5 11 10 11 6 0 10 -2 10 -4z
m-530 -26 c0 -5 -2 -10 -4 -10 -3 0 -8 5 -11 10 -3 6 -1 10 4 10 6 0 11 -4 11
-10z m647 4 c-3 -3 -12 -4 -19 -1 -8 3 -5 6 6 6 11 1 17 -2 13 -5z m-110 -10
c-3 -3 -12 -4 -19 -1 -8 3 -5 6 6 6 11 1 17 -2 13 -5z m81 -29 c-3 -3 -9 2
-12 12 -6 14 -5 15 5 6 7 -7 10 -15 7 -18z m62 3 c0 -5 5 -6 12 -2 6 4 8 3 4
-4 -3 -6 -15 -9 -26 -7 -11 2 -20 -1 -20 -7 0 -6 -3 -8 -6 -5 -4 4 -2 13 4 20
7 8 9 17 5 21 -4 4 0 4 10 0 9 -3 17 -10 17 -16z m176 -40 c-1 -21 -6 -40 -11
-42 -6 -2 -9 12 -6 37 3 34 1 39 -13 34 -10 -4 -14 -3 -11 2 3 6 14 9 23 8 15
-1 18 -9 18 -39z m41 27 c0 -8 -4 -12 -9 -9 -5 3 -6 10 -3 15 9 13 12 11 12
-6z m-162 -24 c-3 -6 -10 -9 -15 -6 -5 3 -18 -3 -30 -15 -11 -11 -20 -16 -20
-11 0 15 42 41 53 34 7 -4 8 1 3 13 -5 14 -4 16 5 7 6 -6 8 -16 4 -22z m195
15 c0 -2 -8 -10 -17 -17 -16 -13 -17 -12 -4 4 13 16 21 21 21 13z m-133 -21
c0 -8 -3 -13 -5 -10 -3 3 -12 -1 -21 -7 -10 -8 -9 -4 3 10 23 26 23 26 23 7z
m198 -3 c-3 -3 -11 0 -18 7 -9 10 -8 11 6 5 10 -3 15 -9 12 -12z m-730 -12 c3
-5 2 -10 -4 -10 -5 0 -13 5 -16 10 -3 6 -2 10 4 10 5 0 13 -4 16 -10z m695 2
c0 -5 10 -14 23 -21 17 -9 17 -10 2 -5 -11 3 -26 7 -32 7 -15 0 -18 27 -3 27
6 0 10 -4 10 -8z m-530 -12 c0 -5 -5 -10 -11 -10 -5 0 -7 5 -4 10 3 6 8 10 11
10 2 0 4 -4 4 -10z m382 -9 c8 12 9 12 6 0 -6 -22 -28 -25 -27 -4 0 12 2 14 6
4 5 -11 7 -11 15 0z m124 -19 c1 -7 0 -8 -3 -2 -6 14 -30 13 -35 -2 -3 -8 -9
-8 -24 1 -14 10 -15 11 -2 7 10 -3 20 -1 24 5 8 14 37 7 40 -9z m53 -12 c-6
-5 -18 -6 -26 -3 -19 8 -16 11 13 11 17 0 22 -3 13 -8z m43 -30 l-9 -24 -5 22
c-4 14 -2 20 5 15 7 -4 8 0 3 13 -5 14 -4 16 4 8 7 -7 7 -19 2 -34z m152 -13
c-3 -11 -2 -17 3 -14 5 3 9 -5 9 -18 0 -19 -3 -22 -13 -13 -7 5 -10 14 -7 19
5 9 -17 13 -45 10 -7 -2 -10 2 -6 8 3 6 1 11 -5 11 -6 0 -8 5 -4 12 6 9 9 9
12 0 2 -7 8 -10 13 -6 5 3 9 0 9 -6 0 -6 4 -9 9 -6 11 7 9 25 -4 46 -5 9 0 7
13 -4 15 -13 20 -26 16 -39z m-79 23 c-3 -5 -12 -10 -18 -10 -7 0 -6 4 3 10
19 12 23 12 15 0z m-115 -4 c0 -2 -7 -7 -16 -10 -8 -3 -12 -2 -9 4 6 10 25 14
25 6z m-405 -15 c3 -5 2 -12 -3 -15 -5 -3 -9 1 -9 9 0 17 3 19 12 6z m692 -5
c0 -8 -6 -12 -15 -9 -11 5 -11 7 0 14 7 5 13 9 14 9 0 0 1 -6 1 -14z m-217 -6
c0 -5 -2 -10 -4 -10 -3 0 -8 5 -11 10 -3 6 -1 10 4 10 6 0 11 -4 11 -10z m179
-44 c-3 -3 -11 5 -18 17 -13 21 -12 21 5 5 10 -10 16 -20 13 -22z m91 23 c0
-5 4 -8 9 -5 4 3 17 -1 27 -9 16 -12 16 -14 2 -9 -14 5 -16 1 -13 -16 2 -13 1
-19 -3 -16 -4 4 -7 13 -7 19 -1 7 -7 11 -15 9 -8 -2 -12 0 -8 4 4 4 3 13 -3
21 -9 9 -8 13 0 13 6 0 11 -5 11 -11z m-46 -11 c-5 -8 -2 -9 9 -5 10 3 17 2
17 -3 0 -6 -6 -10 -14 -10 -8 0 -17 -8 -19 -17 -3 -12 -5 -9 -6 8 0 14 2 29 6
32 10 11 15 8 7 -5z m-174 -2 c0 -3 -4 -8 -10 -11 -5 -3 -10 -1 -10 4 0 6 5
11 10 11 6 0 10 -2 10 -4z m165 -65 c-3 -2 -11 1 -18 7 -8 7 -18 8 -22 4 -5
-4 -5 -1 -1 5 5 10 11 10 26 1 11 -7 17 -14 15 -17z m141 14 c-17 -17 -36 -20
-36 -4 0 5 4 8 9 4 5 -3 12 -1 16 5 3 5 11 10 16 10 6 0 4 -7 -5 -15z m-622
-11 c5 -14 4 -15 -9 -4 -17 14 -19 20 -6 20 5 0 12 -7 15 -16z m217 -7 c-10
-9 -11 -8 -5 6 3 10 9 15 12 12 3 -3 0 -11 -7 -18z m292 8 c-3 -9 -8 -14 -10
-11 -3 3 -2 9 2 15 9 16 15 13 8 -4z m247 -17 c0 -5 -15 -15 -32 -23 -18 -7
-32 -16 -30 -19 1 -3 0 -6 -3 -6 -6 0 -6 6 1 25 3 8 10 12 15 9 5 -3 17 0 26
5 15 8 15 11 3 12 -8 1 -22 1 -30 0 -12 -2 -13 0 -1 7 15 11 51 4 51 -10z
m-210 2 c0 -5 -5 -10 -11 -10 -5 0 -7 5 -4 10 3 6 8 10 11 10 2 0 4 -4 4 -10z
m-103 -15 c0 -8 -4 -12 -9 -9 -5 3 -6 10 -3 15 9 13 12 11 12 -6z m163 5 c0
-5 -4 -10 -9 -10 -6 0 -13 5 -16 10 -3 6 1 10 9 10 9 0 16 -4 16 -10z m-279
-17 c11 -15 11 -16 0 -6 -7 6 -21 9 -30 6 -14 -4 -14 -3 -1 6 8 6 16 11 16 11
1 0 8 -8 15 -17z m503 -43 c4 -29 3 -40 -3 -30 -6 8 -7 18 -5 22 6 10 -10 11
-19 1 -4 -3 -1 -13 6 -21 10 -13 9 -14 -10 -2 -18 12 -19 15 -7 25 8 6 17 19
19 30 2 11 4 22 4 24 3 13 10 -10 15 -49z m-284 36 c0 -3 -4 -8 -10 -11 -5 -3
-10 -1 -10 4 0 6 5 11 10 11 6 0 10 -2 10 -4z m100 -6 c0 -5 -5 -10 -11 -10
-5 0 -7 5 -4 10 3 6 8 10 11 10 2 0 4 -4 4 -10z m115 -20 c-3 -4 -19 -13 -35
-19 -28 -9 -29 -9 -20 9 6 11 13 20 16 20 3 0 2 -5 -2 -12 -5 -8 -2 -9 10 -5
10 4 20 7 22 7 3 0 2 5 -2 12 -4 7 -3 8 5 4 6 -4 9 -11 6 -16z m105 1 c0 -6
-4 -12 -8 -15 -5 -3 -9 1 -9 9 0 8 4 15 9 15 4 0 8 -4 8 -9z m35 -12 c11 -17
-1 -21 -15 -4 -8 9 -8 15 -2 15 6 0 14 -5 17 -11z m74 -7 c0 -11 -2 -12 -6 -4
-2 6 -9 10 -13 7 -5 -3 -11 -2 -14 3 -2 4 4 9 15 9 12 1 19 -4 18 -15z m-41
-17 c-3 -3 -9 2 -12 12 -6 14 -5 15 5 6 7 -7 10 -15 7 -18z m-461 -17 c-3 -8
-6 -5 -6 6 -1 11 2 17 5 13 3 -3 4 -12 1 -19z m523 8 c0 -3 -4 -8 -10 -11 -5
-3 -10 -1 -10 4 0 6 5 11 10 11 6 0 10 -2 10 -4z m-133 -25 c0 -11 -5 -18 -9
-15 -4 3 -5 11 -1 19 7 21 12 19 10 -4z m263 -1 c0 -5 -4 -10 -10 -10 -5 0
-10 5 -10 10 0 6 5 10 10 10 6 0 10 -4 10 -10z m-199 -19 c-6 -10 -7 -22 -3
-26 4 -5 1 -5 -6 -1 -7 4 -10 12 -7 17 4 5 0 9 -7 10 -10 0 12 14 30 18 1 1
-2 -7 -7 -18z m63 1 c3 -5 -1 -9 -9 -9 -8 0 -15 4 -15 9 0 4 4 8 9 8 6 0 12
-4 15 -8z m66 -2 c8 -5 11 -10 5 -10 -5 0 -17 5 -25 10 -8 5 -10 10 -5 10 6 0
17 -5 25 -10z m-43 -20 c-1 -11 -5 -20 -9 -20 -10 0 -10 4 -2 24 8 22 13 20
11 -4z m107 8 c-5 -8 -2 -9 10 -5 10 4 15 3 11 -3 -3 -6 -2 -10 4 -10 5 0 12
6 15 13 3 8 8 7 16 -6 10 -15 14 -16 28 -5 15 11 15 11 5 -3 -15 -18 -48 -19
-81 -1 -19 11 -23 32 -6 32 3 0 2 -5 -2 -12z m-19 -18 c3 -6 -1 -7 -9 -4 -18
7 -21 14 -7 14 6 0 13 -4 16 -10z m136 -23 c-10 -9 -11 -8 -5 6 3 10 9 15 12
12 3 -3 0 -11 -7 -18z m-101 -51 c-9 -8 -11 -6 -8 9 2 11 -2 19 -8 18 -7 -1
-10 6 -6 19 5 20 6 19 19 -7 11 -21 12 -30 3 -39z m253 35 c21 -11 34 -21 30
-24 -4 -3 -24 6 -43 19 -42 29 -37 31 13 5z m-56 -13 c-3 -8 -6 -5 -6 6 -1 11
2 17 5 13 3 -3 4 -12 1 -19z m-156 -15 c-12 -20 -14 -14 -5 12 4 9 9 14 11 11
3 -2 0 -13 -6 -23z m79 -2 c3 -2 -2 -2 -11 2 -9 3 -21 1 -27 -5 -6 -6 -12 -6
-17 1 -4 7 -1 10 7 9 7 -2 12 3 10 11 -3 14 8 8 38 -18z m113 -12 c-7 -7 -12
-3 -15 16 -5 25 -4 25 10 11 12 -11 13 -19 5 -27z m150 -19 c4 0 5 5 1 12 -5
7 -3 8 5 3 9 -5 10 -10 2 -18 -7 -7 -7 -14 0 -24 7 -7 7 -13 2 -13 -5 0 -17
15 -27 33 -10 17 -13 26 -5 20 7 -7 17 -13 22 -13z m-116 -30 c3 -10 2 -11 -4
-4 -4 6 -15 14 -23 17 -11 5 -9 6 4 4 11 -1 21 -9 23 -17z m208 0 c-3 -5 -11
-10 -16 -10 -6 0 -7 5 -4 10 3 6 11 10 16 10 6 0 7 -4 4 -10z m-84 -26 c2 2 4
-7 4 -20 0 -14 -6 -24 -14 -24 -7 0 -11 -6 -8 -13 3 -8 -4 -14 -16 -15 -16 -1
-18 1 -8 7 7 5 15 23 17 41 3 28 2 31 -11 20 -9 -8 -15 -8 -15 -2 0 14 23 21
36 11 6 -5 13 -7 15 -5z m51 -23 c8 11 9 11 6 1 -4 -16 -22 -18 -24 -2 -2 7
-1 6 3 -1 4 -8 8 -7 15 2z m-322 -5 c0 -11 -19 -15 -25 -6 -3 5 1 10 9 10 9 0
16 -2 16 -4z m415 -46 c3 -6 -4 -10 -17 -10 -18 0 -20 2 -8 10 19 12 18 12 25
0z m-455 -30 c0 -5 -2 -10 -4 -10 -3 0 -8 5 -11 10 -3 6 -1 10 4 10 6 0 11 -4
11 -10z m110 0 c0 -5 -5 -10 -11 -10 -5 0 -7 5 -4 10 3 6 8 10 11 10 2 0 4 -4
4 -10z m300 4 c0 -8 -19 -13 -24 -6 -3 5 1 9 9 9 8 0 15 -2 15 -3z m-116 -86
c-3 -5 -12 -4 -20 3 -19 16 -18 18 6 12 11 -3 17 -9 14 -15z"/>
<path d="M10617 10556 c-6 -16 2 -28 14 -20 12 7 11 34 0 34 -5 0 -11 -6 -14
-14z"/>
<path d="M14615 9110 c-3 -5 -1 -10 4 -10 6 0 11 5 11 10 0 6 -2 10 -4 10 -3
0 -8 -4 -11 -10z"/>
</g>
</svg>
